<svg width="1920" height="1920" viewBox="0 0 1920 1920" fill="none" xmlns="http://www.w3.org/2000/svg">
<g clip-path="url(#clip0_104_18)">
<path d="M931 1921C620.667 1921 310.833 1921 1 1921C1 1281 1 641 1 1C641 1 1281 1 1921 1C1921 641 1921 1281 1921 1921C1591.17 1921 1261.33 1921 931 1921ZM413.432 1090.57C437.728 1065.04 465.217 1043.59 495.895 1026.26C553.184 993.907 614.906 976.54 680.406 972.432C735.027 969.006 788.486 975.589 840.641 992.333C842.963 993.078 845.226 994.01 847.516 994.856C847.708 994.401 847.899 993.947 848.091 993.493C844.176 991.559 840.315 989.506 836.339 987.709C765.319 955.609 691.413 941.758 613.808 954.133C546.858 964.81 489.72 994.338 444.652 1045.7C432.439 1059.62 421.439 1074.46 413.068 1091.3C412.92 1091.2 412.772 1091.11 412.624 1091.02C412.741 1091.03 412.858 1091.05 413.432 1090.57ZM1341.17 1173.72C1341.41 1174.34 1341.62 1174.97 1341.89 1175.58C1369.45 1238.2 1397.04 1300.8 1424.52 1363.45C1425.74 1366.23 1427.31 1366.98 1430.15 1366.97C1455.14 1366.88 1480.12 1366.92 1505.1 1366.91C1506.21 1366.91 1507.32 1366.75 1508.86 1366.63C1508.15 1364.76 1507.64 1363.21 1506.99 1361.73C1476.81 1293.17 1446.63 1224.61 1416.42 1156.07C1413.74 1149.99 1410.78 1144.04 1408.05 1137.27C1402.99 1125.5 1397.93 1113.73 1393.33 1101.46C1415.03 1085.14 1434.19 1066.25 1450.2 1044.29C1489.97 989.759 1508.95 928.368 1510.25 861.227C1510.76 834.814 1508.29 808.676 1502.1 782.143C1500.39 775.533 1498.91 768.854 1496.93 762.324C1479.46 704.519 1448.88 655.223 1401.46 617.203C1348.62 574.843 1287.24 555.919 1220.42 555.311C1118.93 554.387 1017.43 555.068 915.937 555.083C914.185 555.083 912.434 555.281 910.245 555.412C910.245 557.77 910.246 559.574 910.245 561.379C910.243 583.378 910.239 605.376 910.238 627.375C910.238 753.701 910.272 880.027 910.117 1006.35C910.111 1011.42 911.71 1013.13 916.514 1013.99C938.32 1017.91 960.058 1022.21 981.826 1026.34C983.207 1026.6 984.63 1026.63 986.607 1026.83C986.607 1023.92 986.607 1021.61 986.607 1019.31C986.607 892.148 986.606 764.988 986.609 637.829C986.61 631.29 986.625 631.286 993.208 631.285C1064.87 631.284 1136.53 631.062 1208.19 631.453C1224.3 631.541 1240.58 632.594 1256.44 635.226C1313.26 644.651 1359.71 671.747 1393.01 719.377C1443.28 791.298 1448.09 896.569 1405.13 973.628C1403.04 977.39 1401.05 981.215 1398.51 985.446C1387.75 1001.44 1375.78 1016.37 1360.69 1029.07C1359.77 1027.13 1359.16 1025.95 1358.63 1024.73C1345.73 995.471 1332.83 966.206 1319.94 936.938C1291.01 871.24 1262.05 805.552 1233.21 739.809C1231.8 736.583 1230.16 735.31 1226.59 735.403C1216.93 735.654 1207.25 735.718 1197.59 735.385C1193.15 735.232 1190.93 736.53 1189.06 740.802C1142.09 847.884 1094.91 954.872 1047.96 1061.96C1045.91 1066.63 1043.66 1067.59 1039 1066.55C985.049 1054.48 931.008 1042.8 877.105 1030.53C828.33 1019.42 779.484 1009.09 729.318 1006.57C672.651 1003.71 617.677 1011.78 564.407 1031.35C510.285 1051.23 461.45 1080.57 415.333 1114.76C414.96 1115.04 414.704 1115.47 413.73 1116.61C415.888 1115.9 416.998 1115.58 418.071 1115.17C524.462 1074.23 634 1064.51 746.38 1081.52C799.643 1089.59 852.066 1101.6 904.563 1113.37C909.407 1114.46 910.354 1116.48 910.347 1121.04C910.208 1200.7 910.249 1280.36 910.251 1360.02C910.251 1362.14 910.251 1364.26 910.251 1366.92C912.633 1366.92 914.422 1366.92 916.212 1366.92C941.211 1366.92 966.21 1366.82 991.207 1367.02C995.279 1367.05 997.28 1365.88 998.953 1362.06C1024.11 1304.53 1049.43 1247.06 1074.77 1189.61C1080.68 1176.22 1086.83 1162.93 1093.71 1149.84C1107.16 1151.17 1120.61 1152.5 1134.9 1154C1162.01 1155.05 1189.11 1156.78 1216.22 1156.99C1252.78 1157.27 1288.48 1151.32 1323.47 1138.8C1323.74 1138.6 1324.02 1138.41 1324.81 1138.32C1325.15 1138.37 1325.5 1138.42 1325.88 1139.18C1330.95 1150.45 1336.02 1161.72 1341.17 1173.72Z" fill="#0A2540"/>
<path d="M1325.85 1138.47C1325.5 1138.42 1325.15 1138.37 1324.3 1138.25C1323.5 1138.37 1323.22 1138.56 1322.95 1138.74C1288.48 1151.32 1252.78 1157.27 1216.22 1156.99C1189.11 1156.78 1162.01 1155.05 1134.53 1153.55C1139.57 1140.45 1145.02 1127.81 1150.4 1115.14C1155.33 1103.55 1160.19 1091.93 1165.38 1080.26C1166.11 1080.2 1166.53 1080.21 1167.07 1080.33C1167.18 1080.44 1167.65 1080.49 1167.65 1080.49C1167.65 1080.49 1168.05 1080.25 1168.49 1080.22C1183.43 1080.48 1197.91 1080.99 1212.4 1081.02C1238.38 1081.08 1263.85 1077.46 1288.67 1069.61C1290.48 1069.04 1292.25 1068.31 1294.3 1067.55C1266.66 1004.76 1239.27 942.565 1211.53 879.569C1210.53 881.543 1209.97 882.535 1209.51 883.573C1198.03 909.622 1186.57 935.683 1175.08 961.729C1158.41 999.498 1141.73 1037.26 1124.82 1075.29C1118.78 1088.95 1112.93 1102.31 1107.19 1115.72C1102.35 1126.99 1097.64 1138.31 1092.87 1149.6C1086.83 1162.93 1080.68 1176.22 1074.77 1189.61C1049.43 1247.06 1024.11 1304.53 998.953 1362.06C997.28 1365.88 995.279 1367.05 991.207 1367.02C966.21 1366.82 941.211 1366.92 916.212 1366.92C914.422 1366.92 912.633 1366.92 910.251 1366.92C910.251 1364.26 910.251 1362.14 910.251 1360.02C910.249 1280.36 910.208 1200.7 910.347 1121.04C910.355 1116.48 909.407 1114.46 904.563 1113.37C852.066 1101.6 799.643 1089.59 746.38 1081.52C634 1064.51 524.462 1074.23 418.071 1115.17C416.998 1115.58 415.888 1115.9 413.73 1116.61C414.704 1115.47 414.96 1115.04 415.333 1114.76C461.45 1080.57 510.285 1051.23 564.407 1031.35C617.678 1011.78 672.651 1003.71 729.318 1006.56C779.484 1009.09 828.33 1019.42 877.105 1030.53C931.008 1042.8 985.049 1054.48 1039 1066.55C1043.66 1067.59 1045.91 1066.62 1047.96 1061.96C1094.91 954.871 1142.09 847.884 1189.06 740.802C1190.93 736.529 1193.15 735.232 1197.59 735.385C1207.25 735.718 1216.93 735.653 1226.59 735.402C1230.16 735.309 1231.8 736.582 1233.21 739.809C1262.05 805.551 1291.01 871.24 1319.94 936.938C1332.83 966.205 1345.73 995.471 1358.63 1024.73C1359.16 1025.95 1359.77 1027.13 1360.69 1029.07C1375.78 1016.37 1387.75 1001.44 1399.09 985.161C1400.63 983.973 1401.79 983.207 1402.5 982.144C1414.93 963.627 1428.14 945.569 1439.51 926.422C1462.31 888.053 1479.54 847.057 1493.93 804.851C1496.45 797.484 1499.34 790.248 1502.06 782.951C1508.29 808.676 1510.76 834.814 1510.25 861.227C1508.95 928.367 1489.97 989.759 1450.2 1044.29C1434.19 1066.25 1415.03 1085.14 1392.77 1101.8C1375.9 1114.11 1358.37 1123.95 1339.85 1132.07C1335.15 1134.13 1330.51 1136.33 1325.85 1138.47ZM1012.22 1142.81C1012.92 1141.15 1013.62 1139.48 1014.56 1137.27C1005.06 1135.39 996.03 1133.6 986.701 1131.76C986.701 1154.6 986.701 1176.76 986.701 1198.92C986.954 1198.99 987.206 1199.05 987.459 1199.11C995.614 1180.58 1003.77 1162.05 1012.22 1142.81Z" fill="#00D4FF"/>
<path d="M1502.08 782.547C1499.34 790.248 1496.45 797.485 1493.93 804.852C1479.54 847.058 1462.31 888.053 1439.51 926.423C1428.14 945.57 1414.93 963.627 1402.5 982.145C1401.79 983.208 1400.63 983.973 1399.35 984.944C1401.05 981.215 1403.04 977.39 1405.13 973.628C1448.09 896.569 1443.28 791.298 1393.01 719.377C1359.71 671.747 1313.26 644.651 1256.44 635.225C1240.58 632.594 1224.29 631.541 1208.19 631.453C1136.53 631.062 1064.87 631.284 993.208 631.285C986.625 631.286 986.61 631.29 986.609 637.829C986.606 764.988 986.607 892.148 986.607 1019.31C986.607 1021.61 986.607 1023.92 986.607 1026.83C984.63 1026.63 983.206 1026.6 981.826 1026.34C960.058 1022.2 938.32 1017.91 916.514 1013.99C911.71 1013.13 910.11 1011.42 910.117 1006.35C910.272 880.027 910.238 753.701 910.238 627.375C910.238 605.376 910.243 583.378 910.245 561.379C910.245 559.574 910.245 557.77 910.245 555.412C912.434 555.281 914.185 555.083 915.937 555.083C1017.43 555.068 1118.93 554.387 1220.42 555.311C1287.24 555.919 1348.62 574.843 1401.46 617.203C1448.88 655.223 1479.46 704.519 1496.93 762.324C1498.91 768.854 1500.39 775.533 1502.08 782.547Z" fill="#FBFFFF"/>
<path d="M1407.95 1138.03C1410.78 1144.04 1413.74 1149.99 1416.42 1156.07C1446.63 1224.61 1476.81 1293.17 1506.99 1361.73C1507.64 1363.21 1508.15 1364.76 1508.86 1366.63C1507.32 1366.75 1506.21 1366.91 1505.1 1366.91C1480.12 1366.92 1455.14 1366.88 1430.15 1366.97C1427.31 1366.98 1425.74 1366.23 1424.52 1363.45C1397.04 1300.8 1369.45 1238.2 1341.89 1175.58C1341.62 1174.97 1341.41 1174.34 1341.48 1173.31C1343.75 1171.99 1345.76 1171.18 1347.66 1170.16C1367.77 1159.47 1387.86 1148.74 1407.95 1138.03Z" fill="#F1F9FA"/>
<path d="M412.913 1091C421.439 1074.46 432.439 1059.62 444.652 1045.7C489.72 994.338 546.858 964.81 613.808 954.133C691.413 941.758 765.319 955.609 836.339 987.709C840.315 989.506 844.176 991.559 848.091 993.493C847.899 993.947 847.708 994.401 847.516 994.855C845.226 994.01 842.963 993.078 840.641 992.333C788.486 975.588 735.027 969.006 680.406 972.432C614.906 976.54 553.184 993.907 495.895 1026.26C465.217 1043.59 437.728 1065.04 413.205 1090.78C412.977 1091 412.913 1091 412.913 1091Z" fill="#E6F8FA"/>
<path d="M1093.29 1149.72C1097.64 1138.31 1102.35 1126.99 1107.19 1115.72C1112.93 1102.32 1118.78 1088.95 1124.85 1075.69C1126.94 1076.5 1128.72 1077.62 1130.59 1077.78C1142.07 1078.75 1153.58 1079.5 1165.07 1080.32C1160.19 1091.93 1155.33 1103.55 1150.4 1115.14C1145.02 1127.81 1139.57 1140.45 1134.11 1153.47C1120.61 1152.5 1107.16 1151.17 1093.29 1149.72Z" fill="#1C909D"/>
<path d="M1408 1137.65C1387.86 1148.74 1367.77 1159.47 1347.66 1170.16C1345.76 1171.18 1343.75 1171.99 1341.44 1172.95C1336.02 1161.72 1330.95 1150.45 1325.86 1138.83C1330.51 1136.33 1335.15 1134.13 1339.85 1132.07C1358.37 1123.95 1375.9 1114.11 1392.54 1102.05C1397.93 1113.73 1402.99 1125.5 1408 1137.65Z" fill="#1C909D"/>
<path d="M412.976 1091.03C412.858 1091.05 412.741 1091.03 412.624 1091.02C412.772 1091.11 412.92 1091.2 412.99 1091.15C412.913 1091 412.977 1091 412.976 1091.03Z" fill="#1DBCCE"/>
<path d="M1323.21 1138.77C1323.22 1138.56 1323.5 1138.37 1324.04 1138.2C1324.02 1138.41 1323.74 1138.6 1323.21 1138.77Z" fill="#1C909D"/>
<path d="M1165.38 1080.26C1153.58 1079.5 1142.07 1078.75 1130.59 1077.78C1128.73 1077.62 1126.94 1076.5 1125.09 1075.42C1141.73 1037.26 1158.41 999.499 1175.08 961.73C1186.57 935.684 1198.03 909.623 1209.51 883.574C1209.97 882.535 1210.53 881.544 1211.53 879.569C1239.27 942.566 1266.66 1004.76 1294.3 1067.55C1292.25 1068.31 1290.48 1069.04 1288.67 1069.61C1263.85 1077.46 1238.38 1081.08 1212.4 1081.02C1197.91 1080.99 1183.43 1080.48 1168.22 1080.13C1167.32 1080.12 1167.14 1080.17 1166.95 1080.22C1166.53 1080.21 1166.11 1080.21 1165.38 1080.26Z" fill="#04061B"/>
<path d="M1012.07 1143.16C1003.77 1162.05 995.614 1180.58 987.459 1199.11C987.206 1199.05 986.954 1198.99 986.701 1198.93C986.701 1176.76 986.701 1154.6 986.701 1131.76C996.03 1133.6 1005.06 1135.39 1014.56 1137.27C1013.62 1139.48 1012.92 1141.15 1012.07 1143.16Z" fill="#050D23"/>
<path d="M1167.07 1080.33C1167.14 1080.17 1167.32 1080.12 1167.77 1080.16C1168.05 1080.25 1167.65 1080.49 1167.65 1080.49C1167.65 1080.49 1167.18 1080.44 1167.07 1080.33Z" fill="#1C909D"/>
</g>
<defs>
<clipPath id="clip0_104_18">
<rect width="1920" height="1920" fill="white"/>
</clipPath>
</defs>
</svg>
