<svg width="1099" height="814" viewBox="0 0 1099 814" fill="none" xmlns="http://www.w3.org/2000/svg">
<path d="M913.846 584.47C913.5 584.421 913.155 584.372 912.296 584.251C911.503 584.368 911.225 584.556 910.946 584.744C876.481 597.321 840.782 603.27 804.219 602.99C777.108 602.783 750.008 601.054 722.526 599.554C727.57 586.452 733.019 573.81 738.403 561.141C743.33 549.549 748.187 537.927 753.384 526.257C754.113 526.204 754.533 526.214 755.068 526.334C755.183 526.444 755.65 526.488 755.65 526.488C755.65 526.488 756.045 526.246 756.492 526.217C771.425 526.481 785.911 526.988 800.398 527.02C826.379 527.079 851.853 523.46 876.672 515.614C878.485 515.041 880.247 514.309 882.304 513.552C854.657 450.761 827.272 388.565 799.535 325.569C798.533 327.543 797.969 328.535 797.511 329.573C786.028 355.622 774.569 381.683 763.078 407.729C746.414 445.498 729.729 483.258 712.815 521.293C706.776 534.948 700.933 548.315 695.185 561.723C690.355 572.991 685.635 584.306 680.867 595.601C674.829 608.933 668.678 622.215 662.772 635.606C637.428 693.059 612.113 750.526 586.953 808.059C585.28 811.883 583.279 813.05 579.207 813.018C554.21 812.821 529.211 812.919 504.212 812.919C502.422 812.919 500.633 812.919 498.251 812.919C498.251 810.256 498.251 808.139 498.251 806.022C498.249 726.36 498.208 646.698 498.347 567.036C498.355 562.48 497.407 560.459 492.563 559.372C440.066 547.601 387.643 535.587 334.38 527.524C222 510.511 112.462 520.231 6.0708 561.168C4.99823 561.581 3.8876 561.895 1.72974 562.606C2.70432 561.473 2.96005 561.038 3.33337 560.761C49.4497 526.569 98.2849 497.234 152.407 477.349C205.678 457.776 260.651 449.713 317.318 452.565C367.484 455.09 416.33 465.416 465.105 476.526C519.008 488.804 573.049 500.479 627 512.547C631.66 513.59 633.912 512.625 635.958 507.958C682.912 400.871 730.091 293.884 777.057 186.802C778.93 182.529 781.145 181.232 785.593 181.385C795.248 181.718 804.926 181.653 814.585 181.402C818.163 181.309 819.799 182.582 821.214 185.809C850.048 251.551 879.005 317.24 907.941 382.938C920.831 412.205 933.727 441.471 946.627 470.734C947.163 471.949 947.768 473.133 948.694 475.071C963.779 462.366 975.749 447.444 987.095 431.161C988.63 429.973 989.787 429.207 990.501 428.144C1002.93 409.627 1016.14 391.569 1027.51 372.422C1050.31 334.053 1067.54 293.057 1081.93 250.851C1084.45 243.484 1087.34 236.248 1090.06 228.951C1096.29 254.676 1098.76 280.814 1098.25 307.227C1096.95 374.367 1077.97 435.759 1038.2 490.286C1022.19 512.249 1003.03 531.136 980.773 547.799C963.899 560.106 946.372 569.955 927.849 578.072C923.149 580.131 918.512 582.333 913.846 584.47ZM600.218 588.807C600.921 587.145 601.624 585.483 602.561 583.268C593.059 581.388 584.03 579.602 574.701 577.756C574.701 600.601 574.701 622.763 574.701 644.925C574.954 644.985 575.206 645.045 575.459 645.106C583.614 626.578 591.769 608.05 600.218 588.807Z" fill="#00D4FF"/>
<path d="M1090.08 228.547C1087.34 236.248 1084.45 243.485 1081.93 250.852C1067.54 293.058 1050.31 334.053 1027.51 372.423C1016.14 391.57 1002.93 409.627 990.501 428.145C989.787 429.208 988.63 429.973 987.348 430.944C989.053 427.215 991.037 423.39 993.135 419.628C1036.09 342.569 1031.28 237.298 981.005 165.377C947.711 117.747 901.26 90.6513 844.442 81.2255C828.579 78.5937 812.295 77.5408 796.195 77.453C724.534 77.0622 652.87 77.2838 581.208 77.2854C574.625 77.2855 574.61 77.2897 574.609 83.8289C574.606 210.988 574.607 338.148 574.607 465.307C574.607 467.613 574.607 469.92 574.607 472.831C572.63 472.634 571.206 472.601 569.826 472.339C548.058 468.205 526.32 463.906 504.514 459.991C499.71 459.129 498.11 457.422 498.117 452.353C498.272 326.027 498.238 199.701 498.238 73.375C498.238 51.3762 498.243 29.3775 498.245 7.37874C498.245 5.57436 498.245 3.77004 498.245 1.41207C500.434 1.28054 502.185 1.08345 503.937 1.08315C605.431 1.06807 706.931 0.386861 808.417 1.31069C875.237 1.91884 936.623 20.8425 989.458 63.203C1036.88 101.223 1067.46 150.519 1084.93 208.324C1086.91 214.854 1088.39 221.533 1090.08 228.547Z" fill="#FBFFFF"/>
<path d="M995.953 584.027C998.781 590.039 1001.74 595.994 1004.42 602.072C1034.63 670.614 1064.81 739.173 1094.99 807.734C1095.64 809.214 1096.15 810.756 1096.86 812.629C1095.32 812.751 1094.21 812.914 1093.1 812.915C1068.12 812.925 1043.14 812.878 1018.15 812.969C1015.31 812.979 1013.74 812.235 1012.52 809.452C985.042 746.801 957.453 684.197 929.888 621.583C929.621 620.975 929.409 620.342 929.485 619.311C931.755 617.994 933.76 617.176 935.661 616.164C955.768 605.47 975.859 594.744 995.953 584.027Z" fill="#F1F9FA"/>
<path d="M0.912964 537.002C9.43875 520.464 20.4394 505.622 32.6517 491.703C77.7197 440.338 134.858 410.81 201.808 400.133C279.413 387.758 353.319 401.609 424.339 433.709C428.315 435.506 432.176 437.559 436.091 439.493C435.899 439.947 435.708 440.401 435.516 440.855C433.226 440.01 430.963 439.078 428.641 438.333C376.486 421.588 323.027 415.006 268.406 418.432C202.906 422.54 141.184 439.907 83.8948 472.264C53.2168 489.592 25.7284 511.042 1.20456 536.784C0.977173 536.998 0.912964 537.002 0.912964 537.002Z" fill="#E6F8FA"/>
<path d="M681.29 595.721C685.635 584.307 690.355 572.992 695.185 561.724C700.933 548.316 706.776 534.948 712.849 521.69C714.941 522.496 716.725 523.622 718.59 523.779C730.075 524.748 741.577 525.497 753.074 526.319C748.187 537.927 743.33 549.549 738.403 561.141C733.019 573.811 727.57 586.453 722.107 599.467C708.614 598.498 695.163 597.17 681.29 595.721Z" fill="#1C909D"/>
<path d="M996 583.651C975.859 594.744 955.768 605.469 935.661 616.164C933.76 617.175 931.755 617.993 929.445 618.947C924.02 607.723 918.949 596.451 913.862 584.825C918.512 582.333 923.149 580.131 927.849 578.072C946.372 569.955 963.899 560.106 980.544 548.049C985.928 559.731 990.987 571.503 996 583.651Z" fill="#1C909D"/>
<path d="M911.206 584.771C911.225 584.556 911.503 584.368 912.039 584.198C912.02 584.41 911.743 584.604 911.206 584.771Z" fill="#1C909D"/>
<path d="M755.068 526.334C755.136 526.173 755.319 526.123 755.774 526.16C756.045 526.246 755.65 526.488 755.65 526.488C755.65 526.488 755.183 526.445 755.068 526.334Z" fill="#1C909D"/>
</svg>
